<?xml version="1.0" standalone="no"?>
<!DOCTYPE svg PUBLIC "-//W3C//DTD SVG 20010904//EN"
 "http://www.w3.org/TR/2001/REC-SVG-20010904/DTD/svg10.dtd">
<svg version="1.0" xmlns="http://www.w3.org/2000/svg"
 width="1024.000000pt" height="1024.000000pt" viewBox="0 0 1024.000000 1024.000000"
 preserveAspectRatio="xMidYMid meet">
<metadata>
Created by potrace 1.14, written by Peter Selinger 2001-2017
</metadata>
<g transform="translate(0.000000,1024.000000) scale(0.100000,-0.100000)"
fill="#000000" stroke="none">
<path d="M4612 10179 c-72 -24 -209 -95 -240 -124 -15 -14 -29 -25 -32 -25 -3
0 -14 -14 -24 -30 -17 -29 -17 -34 -1 -98 10 -37 26 -79 36 -94 10 -14 19 -31
19 -37 0 -6 14 -32 30 -58 17 -26 30 -52 30 -59 0 -7 4 -14 8 -16 11 -4 196
-381 212 -431 7 -21 9 -41 6 -44 -3 -3 1 -11 10 -17 8 -6 12 -19 9 -27 -12
-31 -169 -4 -225 39 -19 15 -53 39 -75 53 -22 15 -51 37 -65 50 -57 54 -118
98 -165 119 -27 12 -81 37 -120 55 -38 18 -81 36 -95 39 -14 4 -45 15 -70 25
-63 26 -139 49 -179 56 -19 3 -37 8 -40 10 -20 11 -97 14 -133 4 -42 -11 -54
-11 -153 -6 -27 1 -60 -1 -72 -5 -13 -4 -44 -10 -70 -14 -63 -8 -155 -53 -164
-80 -4 -12 -2 -32 5 -45 17 -34 63 -28 151 20 79 43 185 64 185 36 0 -8 -5
-15 -11 -15 -5 0 -8 -4 -4 -9 3 -5 -2 -17 -11 -25 -20 -21 -31 -194 -10 -177
7 6 15 8 19 5 10 -10 20 40 19 96 0 71 10 87 66 112 63 28 168 28 241 -1 115
-46 256 -167 366 -316 17 -22 32 -42 35 -45 13 -13 33 -61 27 -66 -3 -3 -27 1
-54 9 -57 18 -95 25 -188 33 -38 4 -81 12 -95 19 -41 21 -211 76 -265 87 -27
5 -81 15 -118 21 -38 7 -65 15 -61 20 4 4 -7 7 -24 7 -18 0 -32 3 -32 8 0 9
-343 8 -530 -2 -74 -4 -155 -13 -180 -21 -40 -12 -97 -22 -181 -30 -39 -4 -88
-15 -139 -31 -25 -8 -103 -32 -173 -54 -171 -53 -300 -123 -377 -204 -114
-120 -215 -221 -238 -238 -32 -25 -28 -35 20 -42 36 -6 44 -4 62 18 12 13 31
29 44 35 12 7 22 16 22 22 0 15 225 239 239 239 7 0 24 11 39 25 15 14 32 25
39 25 7 0 29 7 50 16 68 30 77 33 163 59 47 15 101 33 120 41 20 8 42 16 50
18 8 2 22 6 30 9 14 5 36 8 165 22 60 7 82 -4 67 -32 -6 -10 -21 -19 -33 -20
-13 -1 -37 -9 -54 -17 -16 -8 -56 -27 -89 -42 -69 -32 -226 -183 -226 -218 0
-8 -11 -28 -26 -45 -14 -16 -25 -32 -25 -35 0 -3 -6 -20 -13 -38 -8 -18 -21
-50 -29 -70 -9 -21 -21 -38 -26 -38 -6 0 -10 -3 -10 -7 6 -36 -3 -65 -21 -70
-11 -3 -18 -9 -15 -13 6 -9 -86 -80 -103 -80 -6 0 -16 -8 -21 -19 -15 -27
-110 -93 -123 -85 -8 5 -9 1 -5 -10 4 -11 1 -19 -10 -23 -9 -3 -32 -24 -51
-45 -20 -23 -41 -37 -49 -34 -8 3 -11 2 -8 -4 3 -5 -36 -51 -87 -103 -157
-158 -225 -233 -233 -256 -4 -12 -19 -35 -33 -51 -15 -15 -38 -45 -52 -65 -14
-20 -37 -51 -51 -68 -15 -18 -37 -52 -50 -77 -20 -40 -96 -157 -109 -170 -3
-3 -25 -44 -49 -92 -23 -49 -47 -88 -52 -88 -5 0 -9 -7 -9 -14 0 -8 -11 -36
-25 -61 -13 -26 -34 -76 -46 -111 -14 -40 -26 -61 -33 -57 -6 3 -8 3 -4 -2 4
-4 -4 -28 -17 -54 -13 -25 -26 -63 -29 -84 -3 -21 -15 -55 -25 -76 -11 -21
-21 -49 -23 -62 -2 -13 -7 -29 -10 -35 -4 -6 -9 -23 -12 -38 -3 -15 -10 -33
-15 -40 -6 -7 -8 -15 -5 -18 3 -4 -4 -26 -15 -50 -11 -24 -22 -63 -25 -86 -3
-23 -7 -46 -10 -50 -3 -5 -7 -19 -10 -33 -8 -37 -27 -112 -33 -129 -3 -8 -7
-33 -8 -56 -2 -23 -9 -68 -15 -100 -14 -71 -17 -91 -25 -166 -4 -32 -10 -60
-14 -62 -4 -3 -9 -38 -10 -78 -1 -39 -5 -77 -9 -82 -6 -11 -14 -245 -15 -456
0 -121 11 -391 18 -431 7 -43 16 -122 21 -193 3 -39 7 -73 10 -78 3 -5 8 -30
10 -56 3 -26 9 -58 14 -72 5 -14 12 -47 15 -73 2 -27 8 -53 12 -59 3 -6 7 -23
9 -37 1 -14 3 -26 4 -26 3 0 11 -41 12 -73 1 -17 5 -32 9 -32 7 0 17 -44 25
-113 3 -23 8 -46 12 -51 4 -6 7 -18 8 -26 0 -8 8 -31 16 -50 9 -19 26 -71 38
-115 13 -44 31 -104 41 -133 11 -29 19 -62 19 -73 0 -11 12 -40 26 -65 14 -24
23 -44 19 -44 -4 0 0 -12 10 -26 9 -14 19 -38 21 -52 3 -15 9 -31 14 -37 4 -5
20 -38 34 -72 14 -35 38 -89 53 -120 15 -32 28 -60 28 -63 1 -3 9 -22 18 -44
9 -21 17 -42 17 -47 0 -4 8 -16 18 -26 10 -10 26 -40 36 -66 10 -27 26 -56 35
-65 9 -9 32 -46 50 -82 19 -36 40 -72 47 -81 8 -8 14 -19 14 -24 0 -5 7 -16
15 -25 9 -10 18 -28 20 -41 3 -13 13 -31 23 -39 24 -21 63 -77 66 -97 1 -8 12
-23 23 -32 11 -9 49 -59 84 -111 35 -52 66 -97 69 -100 3 -3 35 -41 70 -85 36
-44 82 -98 102 -120 20 -22 47 -53 59 -70 13 -16 31 -37 41 -46 10 -9 18 -19
18 -22 0 -4 89 -100 164 -176 37 -38 203 -184 286 -252 36 -30 87 -74 114 -99
26 -25 52 -44 57 -42 5 1 9 -2 9 -8 0 -5 5 -10 11 -10 12 0 92 -59 97 -72 2
-5 10 -8 17 -8 8 0 29 -14 47 -31 18 -17 49 -39 68 -50 56 -31 75 -43 82 -55
4 -6 25 -19 48 -29 22 -10 40 -22 40 -27 0 -5 5 -6 10 -3 6 3 10 2 10 -3 0 -5
26 -22 58 -37 31 -15 59 -30 62 -34 3 -4 25 -15 50 -26 25 -10 52 -25 61 -32
9 -8 27 -16 39 -18 13 -3 26 -8 29 -12 3 -5 24 -16 46 -27 22 -10 54 -25 70
-34 17 -9 31 -15 32 -14 4 3 77 -32 83 -39 9 -11 54 -22 81 -21 14 1 73 -14
130 -34 57 -20 118 -40 134 -44 17 -5 80 -22 140 -39 61 -17 127 -31 148 -31
20 0 37 -4 37 -10 0 -5 9 -10 20 -10 11 0 20 -4 20 -9 0 -10 44 -29 80 -34 14
-2 32 -7 40 -10 8 -4 29 -8 45 -11 17 -2 30 -5 30 -6 0 -1 8 -3 18 -6 9 -2 25
-6 35 -8 9 -3 17 -5 17 -6 0 -1 24 -3 54 -5 30 -2 66 -7 80 -11 14 -4 42 -8
61 -10 52 -3 150 -13 195 -19 22 -3 45 -6 50 -5 6 0 123 2 260 4 138 2 250 4
250 5 0 7 57 6 61 -1 3 -5 9 -6 13 -4 9 6 113 15 208 18 40 2 73 7 73 12 0 5
6 3 13 -3 8 -6 17 -8 21 -4 8 8 40 15 79 17 15 0 27 5 27 10 0 5 6 4 13 -2 8
-7 18 -7 27 -2 8 5 17 7 22 4 4 -3 23 2 43 10 19 8 65 18 101 21 35 3 80 11
98 19 29 12 94 26 134 29 6 0 12 4 12 9 0 4 9 8 19 8 11 0 23 5 26 10 3 6 15
10 26 10 10 0 19 5 19 10 0 6 3 9 8 8 4 -2 25 3 47 9 53 17 118 33 129 32 5 0
12 4 15 9 9 15 124 71 133 66 4 -3 8 -1 8 5 0 6 19 15 43 21 23 6 60 20 82 30
22 10 58 26 80 35 22 9 57 26 78 37 20 10 37 16 37 11 0 -4 4 -2 9 5 4 7 14
14 22 16 8 1 30 12 49 24 19 12 41 20 48 17 7 -3 11 -1 8 3 -2 4 10 14 27 22
18 8 32 12 32 9 0 -2 11 6 24 18 13 12 28 20 33 17 4 -3 8 -2 8 3 0 10 49 33
71 33 9 0 27 10 41 23 44 41 111 86 120 81 4 -3 8 0 8 5 0 6 7 11 16 11 17 0
114 56 124 70 7 12 111 80 120 80 5 0 17 10 27 23 10 13 25 27 34 33 16 9 72
52 109 84 102 88 128 111 168 148 25 23 52 42 59 42 7 0 13 4 13 10 0 5 50 60
110 121 60 62 110 116 110 120 0 5 11 14 24 21 14 7 25 18 26 23 1 6 23 33 49
60 26 28 75 84 108 127 33 42 66 82 72 90 6 7 29 38 51 68 22 30 51 67 65 82
14 15 25 31 25 36 0 5 10 21 23 35 12 15 31 43 42 64 34 66 86 133 97 126 7
-4 8 -1 4 6 -5 7 3 29 18 51 14 22 26 42 26 45 0 4 7 13 15 21 8 9 15 24 15
33 0 10 7 24 15 31 8 7 15 16 15 20 0 5 17 39 38 77 21 37 45 84 52 103 8 19
26 55 40 80 15 25 30 57 33 72 4 15 15 34 24 44 10 9 19 27 20 40 5 35 72 198
87 209 7 6 16 28 20 50 4 22 17 60 28 84 12 24 22 53 22 65 1 12 5 26 8 32 4
6 10 25 13 42 3 18 16 56 29 85 13 28 27 66 31 82 20 99 26 119 37 133 7 8 11
16 10 16 -6 2 10 79 19 96 4 9 10 36 13 60 7 52 31 162 51 235 8 28 16 72 19
98 3 27 9 54 13 60 10 16 12 29 18 115 2 40 7 77 10 82 3 5 8 40 10 79 9 112
13 148 25 191 13 49 17 353 6 461 -4 42 -9 105 -11 140 -2 35 -6 80 -9 99 -3
19 -8 70 -11 114 -3 43 -8 88 -11 100 -2 11 -7 50 -9 86 -2 36 -10 91 -19 123
-9 31 -18 72 -21 90 -5 36 -9 55 -18 77 -3 8 -10 35 -15 60 -6 25 -14 56 -17
70 -3 14 -9 41 -12 60 -3 19 -9 40 -13 45 -4 6 -11 27 -14 49 -4 21 -12 50
-17 65 -6 14 -9 26 -8 26 1 0 -3 10 -9 21 -6 12 -14 36 -17 55 -3 19 -17 58
-31 88 -13 29 -24 61 -24 71 0 9 -11 33 -24 53 -21 31 -40 86 -36 103 1 4 -3
10 -8 13 -5 3 -26 40 -46 81 -21 41 -44 82 -52 91 -8 8 -14 23 -14 32 0 9 -4
17 -8 17 -5 0 -19 24 -33 53 -13 28 -27 57 -32 62 -35 46 -97 151 -97 164 0 5
-9 20 -20 33 -52 62 -118 145 -126 159 -14 26 -74 98 -136 163 -31 34 -69 78
-85 98 -15 21 -35 40 -43 43 -9 3 -24 18 -33 35 -10 16 -22 30 -27 30 -4 0
-27 16 -50 35 -23 19 -38 35 -33 35 4 0 -3 6 -17 13 -14 8 -24 19 -22 26 1 7
-2 10 -8 6 -5 -3 -10 -2 -10 4 0 5 -9 12 -20 16 -10 3 -77 50 -149 103 -71 53
-138 103 -148 110 -48 33 -469 242 -488 242 -8 0 -18 7 -21 15 -4 8 -12 15
-20 15 -7 0 -33 9 -56 19 -102 46 -120 52 -134 47 -18 -7 -84 19 -84 32 0 21
35 37 76 35 24 -2 46 2 49 7 3 6 13 10 20 10 8 0 52 18 99 40 46 22 89 40 95
40 6 0 11 4 11 10 0 5 11 12 24 16 27 6 39 26 30 49 -8 21 -37 19 -64 -5 -13
-11 -31 -20 -40 -20 -10 0 -49 -10 -86 -22 -38 -12 -78 -23 -89 -25 -11 -2
-42 -8 -69 -13 -27 -6 -82 -7 -125 -4 -98 9 -155 9 -266 0 -49 -4 -97 -7 -105
-6 -47 1 -122 -4 -210 -15 -25 -3 -74 -7 -110 -10 -36 -2 -75 -6 -87 -9 -12
-2 -24 1 -26 9 -7 16 20 55 38 55 7 0 21 7 29 16 60 59 161 129 258 177 115
57 223 102 268 111 14 3 77 16 140 29 132 28 254 28 410 3 47 -8 226 -68 321
-108 84 -34 140 -80 288 -232 42 -43 90 -93 108 -111 18 -18 45 -36 60 -39
112 -27 116 -31 118 -121 1 -32 5 -40 20 -40 10 0 21 9 25 20 11 31 -15 117
-41 135 -30 20 -106 96 -149 148 -37 45 -124 133 -165 166 -13 10 -43 36 -66
56 -22 21 -57 46 -77 56 -21 11 -39 21 -42 24 -15 15 -71 50 -80 50 -6 0 -57
14 -113 31 -56 17 -129 38 -162 46 -33 9 -67 18 -75 21 -8 3 -17 6 -20 7 -126
42 -496 34 -720 -16 -47 -11 -109 -25 -137 -31 -29 -7 -53 -16 -53 -20 0 -4
-7 -8 -16 -8 -22 0 -114 -29 -146 -46 -17 -9 -29 -11 -33 -4 -4 6 -12 5 -21
-5 -9 -8 -21 -16 -27 -16 -36 -4 -59 -9 -127 -28 -41 -12 -93 -24 -115 -27
-40 -6 -144 -51 -156 -67 -10 -14 -86 -20 -94 -8 -9 16 14 111 28 111 6 0 8 3
4 6 -3 4 6 30 21 58 31 61 38 78 103 271 28 82 54 154 58 160 4 5 8 26 10 45
2 28 -4 41 -31 67 -50 48 -158 83 -257 83 -113 0 -143 -16 -166 -89 -9 -31
-24 -71 -33 -90 -9 -19 -26 -62 -38 -95 -12 -34 -37 -104 -57 -156 -69 -183
-99 -265 -107 -291 -4 -14 -12 -34 -18 -45 -12 -20 -36 -78 -46 -107 -7 -22
-50 -39 -85 -33 -14 2 -33 5 -42 5 -8 1 -23 17 -32 36 -9 19 -21 35 -26 35 -4
0 -12 23 -15 52 -4 29 -18 75 -30 102 -13 28 -32 76 -42 106 -11 30 -22 57
-25 60 -4 3 -10 16 -14 30 -4 14 -23 58 -42 98 -18 40 -31 77 -28 82 3 6 2 10
-4 10 -12 0 -11 -1 -119 213 -45 91 -93 180 -105 199 -12 19 -31 51 -41 71
-11 20 -24 38 -30 39 -41 7 -124 0 -164 -13z m-1452 -1063 c96 -11 284 -70
288 -90 3 -13 -6 -16 -42 -16 -57 0 -129 -14 -231 -46 -95 -30 -96 -31 -205
-83 -47 -23 -95 -41 -105 -41 -11 0 -41 -7 -67 -15 -27 -8 -48 -11 -48 -8 0 3
-6 1 -12 -5 -7 -5 -26 -13 -43 -15 -16 -3 -61 -17 -100 -31 -38 -14 -78 -26
-87 -26 -10 0 -18 -5 -18 -12 0 -6 -3 -8 -6 -5 -4 4 -19 0 -33 -7 -14 -7 -71
-36 -126 -64 -55 -28 -119 -61 -142 -74 -58 -32 -73 -17 -44 43 29 62 68 130
89 157 34 46 90 102 101 102 6 0 11 4 11 10 0 11 98 87 107 82 3 -2 9 0 12 5
8 11 121 65 201 97 68 26 134 43 185 49 37 3 268 -1 315 -7z"/>
</g>
</svg>
